<?xml version="1.0" encoding="UTF-8" standalone="no"?>
<!-- Created with Inkscape (http://www.inkscape.org/) -->

<svg
   xmlns:dc="http://purl.org/dc/elements/1.1/"
   xmlns:cc="http://creativecommons.org/ns#"
   xmlns:rdf="http://www.w3.org/1999/02/22-rdf-syntax-ns#"
   xmlns:svg="http://www.w3.org/2000/svg"
   xmlns="http://www.w3.org/2000/svg"
   xmlns:sodipodi="http://sodipodi.sourceforge.net/DTD/sodipodi-0.dtd"
   xmlns:inkscape="http://www.inkscape.org/namespaces/inkscape"
   id="svg3100"
   version="1.1"
   inkscape:version="0.48.4 r9939"
   width="500"
   height="500"
   sodipodi:docname="1.svg">
  <metadata
     id="metadata3106">
    <rdf:RDF>
      <cc:Work
         rdf:about="">
        <dc:format>image/svg+xml</dc:format>
        <dc:type
           rdf:resource="http://purl.org/dc/dcmitype/StillImage" />
        <dc:title></dc:title>
      </cc:Work>
    </rdf:RDF>
  </metadata>
  <defs
     id="defs3104" />
  <sodipodi:namedview
     pagecolor="#ffffff"
     bordercolor="#666666"
     borderopacity="1"
     objecttolerance="10"
     gridtolerance="10"
     guidetolerance="10"
     inkscape:pageopacity="0"
     inkscape:pageshadow="2"
     inkscape:window-width="1366"
     inkscape:window-height="709"
     id="namedview3102"
     showgrid="false"
     inkscape:zoom="1"
     inkscape:cx="250"
     inkscape:cy="251.49035"
     inkscape:window-x="0"
     inkscape:window-y="27"
     inkscape:window-maximized="1"
     inkscape:current-layer="svg3100" />
  <path
     style="fill:#000000"
     d="m 204.87356,454.65978 c -7.82754,-0.94241 -19.80087,-2.68411 -26.60743,-3.87046 l -12.37556,-2.15701 -2.74193,-5.56899 c -4.57324,-9.28843 -15.42562,-37.12528 -18.57505,-47.64586 -4.69605,-15.68698 -7.76554,-33.25329 -7.76554,-44.44117 0,-15.35404 0.73784,-17.71985 6.67066,-21.38818 13.40247,-8.28693 42.94013,-31.20751 46.30286,-35.92999 1.4152,-1.98749 2.94745,-6.43577 3.40504,-9.88505 0.79921,-6.02483 0.69253,-6.33803 -2.71284,-7.9647 -7.05493,-3.37 -12.87465,-19.14333 -14.79847,-40.10867 -0.78737,-8.58064 -0.85983,-8.72748 -4.07388,-8.25577 -4.85192,0.71211 -9.41707,-3.59765 -13.85833,-13.08309 -2.13466,-4.55912 -5.34954,-11.35226 -7.14416,-15.09587 -2.82724,-5.89772 -3.34612,-8.87204 -3.88608,-22.27599 l -0.62315,-15.46944 -5.569,0 c -6.55542,0 -6.51748,0.43584 -1.23805,-14.23187 3.99038,-11.08637 4.03432,-12.00882 1.71062,-35.9242 -0.59261,-6.09936 -0.19552,-7.7418 3.65961,-15.138048 2.3784,-4.563024 4.70935,-10.11622 5.17981,-12.340463 1.25613,-5.938269 5.09613,-11.612781 9.84437,-14.547352 2.57621,-1.592195 4.47776,-3.935399 4.95431,-6.105023 1.88874,-8.599385 12.14513,-16.159848 21.94941,-16.179968 2.3362,-0.0052 3.1659,-0.52431 2.71478,-1.699856 -0.39661,-1.033568 1.12457,-2.739785 3.90548,-4.380547 4.16926,-2.459941 4.49625,-3.050326 3.86017,-6.969924 -0.64289,-3.961674 -0.4459,-4.297559 2.63054,-4.485492 7.43346,-0.454097 16.28507,0.516991 26.83902,2.944399 9.51877,2.189329 13.4977,2.448691 27.36943,1.783929 12.52969,-0.600418 17.63432,-0.361203 22.38285,1.048956 11.99221,3.561317 20.75121,12.460278 25.20053,25.603239 l 2.12167,6.267172 8.1629,0.361048 c 10.04935,0.444528 19.38849,4.462294 27.2793,11.735803 7.3265,6.75331 10.1199,11.547714 11.08095,19.018595 0.42904,3.334932 1.61462,7.736452 2.63469,9.781192 2.32101,4.6526 2.38776,9.39831 0.1443,10.25923 -0.9407,0.361 -2.07771,2.95353 -2.52666,5.76117 -0.44898,2.8077 -1.67707,6.91877 -2.72911,9.13577 -1.73099,3.64777 -1.72452,4.67845 0.0678,10.84398 1.08935,3.74719 2.53021,7.15274 3.2019,7.56789 1.35812,0.83935 1.6629,10.39353 0.43377,13.59664 -0.43318,1.12877 -2.10389,2.55279 -3.71268,3.16445 -2.48576,0.94508 -2.92511,1.96103 -2.92511,6.76394 0,20.72743 -12.42294,48.05574 -24.74085,54.42558 -2.52268,1.30451 -3.76125,3.47727 -5.42169,9.51091 -3.16968,11.51785 -11.24622,27.43328 -16.9805,33.46124 -4.61493,4.85132 -4.96408,5.68736 -4.28008,10.24871 1.05286,7.02102 6.14563,17.43188 9.55491,19.53261 1.58686,0.97778 12.77019,7.46915 24.85181,14.42526 l 21.96662,12.64743 0,7.88187 c 0,18.63487 -6.02594,50.87344 -12.94513,69.25603 -4.64813,12.34892 -15.45787,32.42857 -20.45065,37.98818 -4.00582,4.46059 -5.27897,5.03055 -16.10642,7.21018 -25.29025,5.09106 -66.70651,6.35911 -95.29175,2.91758 z m 51.97732,-246.11316 0,-10.51921 -10.51922,0 -10.51924,0 0,9.69419 c 0,5.3318 0.37129,10.06546 0.82505,10.51922 0.45376,0.45378 5.18742,0.82504 10.51922,0.82504 l 9.69419,0 0,-10.51924 z m -1.20511,-26.9168 c 0.0716,-6.14583 4.274,-12.19386 12.96189,-18.65468 4.76458,-3.54324 10.47279,-9.14224 12.68493,-12.44228 3.46656,-5.17138 4.02203,-7.06615 4.02203,-13.71961 0,-8.98792 -1.60393,-14.50052 -5.90214,-20.28523 -11.72644,-15.78183 -42.23053,-18.107423 -58.20112,-4.43718 -5.807,4.97055 -11.06246,15.01094 -11.62153,22.2025 l -0.38484,4.95021 10.20984,0.35945 c 8.78217,0.30917 10.20984,0.0758 10.20984,-1.66932 0,-3.90731 4.16779,-10.76011 7.94505,-13.06349 4.62759,-2.82189 13.89991,-3.064 19.98422,-0.52182 3.03605,1.26851 4.91577,3.19882 6.26904,6.43767 2.85083,6.82298 0.7471,12.64961 -6.69567,18.54477 -14.79228,11.71646 -18.57422,17.16497 -19.73741,28.43486 l -0.6862,6.64865 9.45482,0 c 8.97032,0 9.45645,-0.14276 9.48725,-2.7845 z"
     id="path3311"
     inkscape:connector-curvature="0" />
</svg>
