<?xml version="1.0" encoding="UTF-8" standalone="no"?>
<!-- Created with Inkscape (http://www.inkscape.org/) -->

<svg
   xmlns:dc="http://purl.org/dc/elements/1.1/"
   xmlns:cc="http://creativecommons.org/ns#"
   xmlns:rdf="http://www.w3.org/1999/02/22-rdf-syntax-ns#"
   xmlns:svg="http://www.w3.org/2000/svg"
   xmlns="http://www.w3.org/2000/svg"
   xmlns:sodipodi="http://sodipodi.sourceforge.net/DTD/sodipodi-0.dtd"
   xmlns:inkscape="http://www.inkscape.org/namespaces/inkscape"
   width="100"
   height="30"
   id="svg2"
   version="1.1"
   inkscape:version="0.48.4 r9939"
   sodipodi:docname="New document 1">
  <defs
     id="defs4" />
  <sodipodi:namedview
     id="base"
     pagecolor="#ffffff"
     bordercolor="#666666"
     borderopacity="1.0"
     inkscape:pageopacity="0.0"
     inkscape:pageshadow="2"
     inkscape:zoom="2.3"
     inkscape:cx="-56.014365"
     inkscape:cy="51.87839"
     inkscape:document-units="px"
     inkscape:current-layer="layer1"
     showgrid="false"
     inkscape:window-width="1366"
     inkscape:window-height="709"
     inkscape:window-x="0"
     inkscape:window-y="27"
     inkscape:window-maximized="1" />
  <metadata
     id="metadata7">
    <rdf:RDF>
      <cc:Work
         rdf:about="">
        <dc:format>image/svg+xml</dc:format>
        <dc:type
           rdf:resource="http://purl.org/dc/dcmitype/StillImage" />
        <dc:title></dc:title>
      </cc:Work>
    </rdf:RDF>
  </metadata>
  <g
     inkscape:label="Layer 1"
     inkscape:groupmode="layer"
     id="layer1"
     transform="translate(0,-1022.3622)">
    <path
       inkscape:connector-curvature="0"
       d="m 33.851128,1037.8838 v 7.9194 q 0,0.4292 -0.313481,0.7425 -0.313473,0.3135 -0.742445,0.3135 h -6.33554 v -6.3355 h -4.223697 v 6.3355 h -6.335539 q -0.428966,0 -0.742447,-0.3135 -0.313474,-0.3133 -0.313474,-0.7425 v -7.9194 q 0,-0.016 0.0083,-0.049 0.0083,-0.033 0.0083,-0.05 l 9.486813,-7.8204 9.486818,7.8204 q 0.01649,0.033 0.01649,0.099 z m 3.679232,-1.1383 -1.022927,1.2208 q -0.13199,0.1485 -0.346474,0.1815 h -0.0495 q -0.214483,0 -0.346475,-0.1158 l -11.417171,-9.5198 -11.417176,9.5198 q -0.197981,0.1319 -0.395966,0.1158 -0.214485,-0.033 -0.346478,-0.1815 l -1.02293,-1.2208 q -0.131988,-0.1651 -0.115479,-0.3878 0.01649,-0.2227 0.181488,-0.3546 l 11.862642,-9.8829 q 0.527954,-0.4289 1.253905,-0.4289 0.72595,0 1.25391,0.4289 l 4.025707,3.3658 v -3.2172 q 0,-0.2312 0.14849,-0.3796 0.14849,-0.1485 0.379472,-0.1485 h 3.16777 q 0.230987,0 0.379476,0.1485 0.148489,0.1484 0.148489,0.3796 v 6.7314 l 3.613237,3.0029 q 0.164986,0.1319 0.181486,0.3546 0.0165,0.2227 -0.115491,0.3878 z"
       id="path3064" />
    <text
       xml:space="preserve"
       style="font-size:16.55180359px;font-style:normal;font-weight:normal;line-height:125%;letter-spacing:0px;word-spacing:0px;fill:#000000;fill-opacity:1;stroke:none;font-family:Sans"
       x="41.236351"
       y="1041.8074"
       id="text3090"
       sodipodi:linespacing="125%"><tspan
         sodipodi:role="line"
         id="tspan3092"
         x="41.236351"
         y="1041.8074">Home</tspan></text>
  </g>
</svg>
