<?xml version="1.0" encoding="UTF-8" standalone="no"?>
<!-- Created with Inkscape (http://www.inkscape.org/) -->

<svg
   xmlns:dc="http://purl.org/dc/elements/1.1/"
   xmlns:cc="http://creativecommons.org/ns#"
   xmlns:rdf="http://www.w3.org/1999/02/22-rdf-syntax-ns#"
   xmlns:svg="http://www.w3.org/2000/svg"
   xmlns="http://www.w3.org/2000/svg"
   xmlns:sodipodi="http://sodipodi.sourceforge.net/DTD/sodipodi-0.dtd"
   xmlns:inkscape="http://www.inkscape.org/namespaces/inkscape"
   width="700"
   height="100"
   id="svg3856"
   version="1.1"
   inkscape:version="0.48.4 r9939"
   sodipodi:docname="header.svg"
   inkscape:export-filename="/var/www/vote/img/header.png"
   inkscape:export-xdpi="90"
   inkscape:export-ydpi="90">
  <defs
     id="defs3858">
    <linearGradient
       id="linearGradient5974">
      <stop
         style="stop-color:#6bbfff;stop-opacity:1;"
         offset="0"
         id="stop5976" />
      <stop
         style="stop-color:#6bfdff;stop-opacity:0;"
         offset="1"
         id="stop5978" />
    </linearGradient>
  </defs>
  <sodipodi:namedview
     id="base"
     pagecolor="#ffffff"
     bordercolor="#666666"
     borderopacity="1.0"
     inkscape:pageopacity="0.0"
     inkscape:pageshadow="2"
     inkscape:zoom="1.42"
     inkscape:cx="495.44316"
     inkscape:cy="33.204564"
     inkscape:document-units="px"
     inkscape:current-layer="layer1"
     showgrid="false"
     fit-margin-top="0"
     fit-margin-left="0"
     fit-margin-right="0"
     fit-margin-bottom="0"
     inkscape:window-width="1366"
     inkscape:window-height="709"
     inkscape:window-x="0"
     inkscape:window-y="27"
     inkscape:window-maximized="1"
     showguides="true"
     inkscape:guide-bbox="true" />
  <metadata
     id="metadata3861">
    <rdf:RDF>
      <cc:Work
         rdf:about="">
        <dc:format>image/svg+xml</dc:format>
        <dc:type
           rdf:resource="http://purl.org/dc/dcmitype/StillImage" />
        <dc:title />
      </cc:Work>
    </rdf:RDF>
  </metadata>
  <g
     inkscape:label="Layer 1"
     inkscape:groupmode="layer"
     id="layer1"
     transform="translate(-9.84375,-891.59375)">
    <rect
       style="fill:#009bff;fill-opacity:0.50243902;fill-rule:nonzero;stroke:none"
       id="rect3890"
       width="700"
       height="100"
       x="9.8591547"
       y="891.79883" />
    <path
       style="fill:#000000"
       d="m 606.76562,977.20955 c -12.36287,-1.4712 -21.13055,-9.4172 -22.74829,-20.6164 -0.8328,-5.7653 1.11805,-13.3716 4.25505,-16.59034 1.92891,-1.97928 5.8621,-0.75969 5.8621,1.81754 0,0.5739 -0.62426,2.2156 -1.38727,3.6484 -1.85315,3.4799 -2.50888,7.219 -1.8603,10.6074 1.40568,7.3442 7.19076,12.955 14.78759,14.342 3.14493,0.5745 69.5353,0.5707 73.17992,0 10.21305,-1.61 17.23348,-11.4936 14.76939,-20.7923 -1.06332,-4.0126 -3.30567,-7.3499 -6.55064,-9.75006 -4.68714,-3.46676 -4.94635,-3.50047 -27.87101,-3.62728 l -20.13508,-0.11189 -1.10818,-1.24081 c -1.24738,-1.39679 -1.34087,-1.98515 -0.57324,-3.60732 0.94015,-1.98671 2.36934,-2.10326 23.36429,-1.90519 18.50164,0.17454 19.65961,0.23337 22.49145,1.14228 8.05969,2.58675 13.70892,7.83877 16.4522,15.29537 1.64342,4.4672 1.64342,10.6597 0,15.1271 -2.8054,7.6257 -8.86514,13.1566 -17.05382,15.5659 -2.0792,0.6115 -6.99279,0.7116 -38.44008,0.7822 -19.83087,0.043 -36.67621,0 -37.43408,-0.082 z m 0.91532,-10.0031 c -1.30888,-0.6896 -1.58931,-1.2299 -1.59726,-3.0778 -0.009,-1.9058 1.93094,-8.0822 2.99327,-9.5341 0.99168,-1.355 2.84052,-2.2267 8.22807,-3.8786 l 4.56833,-1.4008 0.79302,-2.1686 c 0.99608,-2.7238 1.03518,-3.3092 0.20034,-3.0009 -0.3651,0.1354 -1.05368,1.3723 -1.53014,2.75 l -0.86626,2.505 -4.90027,0.1251 c -3.52347,0.09 -4.90025,-0.021 -4.90025,-0.3945 0,-1.7962 1.98711,-6.5654 3.2563,-7.8153 2.0009,-1.97055 4.154,-2.39787 11.2424,-2.23108 5.34596,0.12518 6.2681,0.25943 7.40171,1.07188 0.71222,0.5108 1.35623,1.4149 1.43113,2.0093 0.12403,0.9851 -1.34289,5.8921 -6.09357,20.3826 l -1.70076,5.1878 -8.80537,-0.023 c -5.44179,-0.015 -9.155,-0.2082 -9.72069,-0.5063 z m 11.00686,-7.8779 c 1.39289,-4.2455 1.37903,-4.0972 0.33283,-3.558 -0.48127,0.2481 -1.15013,1.5202 -1.57776,3.0008 -0.40829,1.4136 -0.88123,2.9184 -1.05097,3.3442 -0.21287,0.5337 -0.0858,0.7738 0.4095,0.7738 0.49511,0 1.08095,-1.1059 1.8864,-3.5608 z m 10.81387,8.1449 c 0,-0.1544 1.03346,-3.4382 2.29657,-7.2974 1.2631,-3.8588 3.34074,-10.2061 4.61694,-14.1049 l 2.32036,-7.08816 8.97379,0.12225 c 8.93394,0.12238 8.97787,0.12824 9.89747,1.22171 1.08923,1.2958 0.98853,2.6718 -0.56408,7.7074 l -1.03468,3.3558 -4.75587,0 c -2.61574,0 -4.7559,-0.1813 -4.7559,-0.4028 0,-0.2216 0.41074,-1.6645 0.91271,-3.2065 1.08484,-3.3323 1.09751,-3.4668 0.32682,-3.4668 -0.37892,0 -2.00651,4.2902 -4.44608,11.7198 l -3.84834,11.7197 -4.96986,0 c -2.73342,0 -4.96985,-0.1266 -4.96985,-0.2809 z m 26.35086,-0.3317 c -1.79735,-0.7839 -2.16571,-1.352 -2.09249,-3.2272 0.0775,-1.9853 5.89689,-19.8716 7.06376,-21.7111 1.6652,-2.62525 2.95175,-2.97449 10.95495,-2.97449 10.36685,0 11.19084,0.73139 8.86009,7.86449 l -1.33185,4.0761 -4.54533,0.1283 c -2.49993,0.071 -4.80776,0.032 -5.1285,-0.088 -0.44306,-0.1635 -0.30087,-1.0239 0.59177,-3.5805 0.64622,-1.8504 1.04404,-3.4906 0.88403,-3.6446 -0.70556,-0.6794 -1.69255,1.5389 -4.1808,9.3968 -1.46347,4.6215 -2.7543,8.6516 -2.86855,8.9558 -0.1142,0.3039 0.11494,0.5526 0.50916,0.5526 0.50457,0 1.08418,-1.1784 1.95744,-3.9802 l 1.24059,-3.9803 4.98142,0 c 3.33135,0 4.98142,0.162 4.98142,0.4888 0,1.0798 -2.34971,7.7834 -3.19269,9.1088 -1.59051,2.5007 -3.13209,2.9529 -10.58674,3.1059 -5.01444,0.1024 -7.01526,-0.018 -8.09768,-0.4907 z M 598.7822,939.8326 c -4.54509,-2.20149 -4.75041,-8.00472 -0.37411,-10.57401 4.15935,-2.44192 9.50238,0.42875 9.50238,5.10537 0,4.69248 -4.79715,7.56629 -9.12827,5.46864 z m 4.50571,-2.35646 c 3.2146,-1.60061 2.04855,-6.42915 -1.55261,-6.42915 -4.0919,0 -5.25231,5.16979 -1.48813,6.62962 1.39833,0.54243 1.57179,0.53092 3.04074,-0.20047 z m 8.05871,-3.22268 c -0.74249,-3.48267 -1.33363,-4.7233 -3.02797,-6.35471 -1.9038,-1.83311 -2.16979,-3.1379 -0.69539,-3.41129 2.16653,-0.40174 6.24874,5.53676 6.25725,9.10253 0.004,1.70751 -0.0999,1.87964 -1.13506,1.87964 -0.87407,0 -1.19994,-0.28337 -1.39883,-1.21617 z m 6.47477,0.69445 c -0.1064,-0.32114 -0.33184,-1.57903 -0.50113,-2.7952 -0.46165,-3.3164 -2.38587,-6.6902 -5.14345,-9.01831 -2.61415,-2.20701 -2.90121,-2.86753 -1.54903,-3.56432 0.70693,-0.36429 1.22623,-0.17471 2.68296,0.97951 4.05636,3.21397 6.54248,7.7619 6.69268,12.24303 0.0752,2.23966 -0.009,2.46829 -0.9532,2.59749 -0.56955,0.0783 -1.1225,-0.12079 -1.22883,-0.4422 z m 6.76346,-0.0149 c -0.25785,-0.3145 -0.60139,-1.85255 -0.76339,-3.41786 -0.47218,-4.56193 -3.17309,-9.43262 -7.18627,-12.95933 -2.33972,-2.05612 -3.15698,-3.04998 -2.94514,-3.58155 0.44051,-1.10529 1.70156,-0.89153 3.69147,0.62574 5.45513,4.15945 9.68952,12.26763 9.27587,17.7618 -0.14743,1.95816 -1.13892,2.70978 -2.07254,1.5712 z m 6.79084,0.11335 c -0.31288,-0.1862 -0.76623,-1.86903 -1.00743,-3.73956 -0.91441,-7.09196 -3.79299,-12.38099 -9.54122,-17.53085 -2.67841,-2.3996 -3.76721,-3.66316 -3.57411,-4.14773 0.46578,-1.16871 1.79059,-0.78493 4.52807,1.31169 2.96457,2.27049 6.27794,6.30438 8.21816,10.00521 3.4531,6.5865 4.35998,15.87665 1.37653,14.10124 z"
       id="path3957"
       inkscape:connector-curvature="0" />
    <text
       xml:space="preserve"
       style="font-size:24.84024811px;font-style:normal;font-weight:normal;line-height:125%;letter-spacing:0px;word-spacing:0px;fill:#000000;fill-opacity:1;stroke:none;font-family:Sans"
       x="170.36028"
       y="946.58514"
       id="text3882"
       sodipodi:linespacing="125%"
       transform="scale(0.97694422,1.0235999)"><tspan
         sodipodi:role="line"
         id="tspan3884"
         x="170.36028"
         y="946.58514"
         style="font-style:oblique;font-variant:normal;font-weight:normal;font-stretch:normal;font-family:Sawasdee;-inkscape-font-specification:Sawasdee Oblique">~ Dare to be different ~</tspan></text>
    <a
       id="a3806">
      <text
         sodipodi:linespacing="125%"
         id="text3886"
         y="936.77466"
         x="149.15796"
         style="font-size:41.60228729px;font-style:normal;font-weight:normal;line-height:125%;letter-spacing:0px;word-spacing:0px;fill:#000000;fill-opacity:1;stroke:none;font-family:Sans"
         xml:space="preserve"><tspan
           style="font-family:ubuntu;-inkscape-font-specification:ubuntu"
           y="936.77466"
           x="149.15796"
           id="tspan3888"
           sodipodi:role="line">Pemilu ARC ITB</tspan></text>
    </a>
    <text
       xml:space="preserve"
       style="font-size:19.84766579px;font-style:normal;font-weight:normal;line-height:125%;letter-spacing:0px;word-spacing:0px;fill:#000000;fill-opacity:1;stroke:none;font-family:Sans"
       x="639.18182"
       y="921.01422"
       id="text3959"
       sodipodi:linespacing="125%"><tspan
         sodipodi:role="line"
         id="tspan3961"
         x="639.18182"
         y="921.01422"
         style="font-style:normal;font-variant:normal;font-weight:500;font-stretch:normal;font-family:ubuntu;-inkscape-font-specification:ubuntu">2014</tspan></text>
    <rect
       style="opacity:0.8;fill:#000000;fill-opacity:1;fill-rule:nonzero;stroke:none"
       id="rect3963"
       width="20"
       height="20"
       x="9.84375"
       y="891.59375" />
    <rect
       style="opacity:0.8;fill:#ffffff;fill-opacity:1;fill-rule:nonzero;stroke:none"
       id="rect3963-7"
       width="20"
       height="20"
       x="9.84375"
       y="911.09375" />
    <rect
       style="opacity:0.8;fill:#000000;fill-opacity:1;fill-rule:nonzero;stroke:none"
       id="rect3963-7-7"
       width="20"
       height="20"
       x="9.84375"
       y="931.59375" />
    <rect
       style="opacity:0.8;fill:#ffffff;fill-opacity:1;fill-rule:nonzero;stroke:none"
       id="rect3963-7-5"
       width="20"
       height="20"
       x="9.84375"
       y="951.59381" />
    <rect
       style="opacity:0.8;fill:#000000;fill-opacity:1;fill-rule:nonzero;stroke:none"
       id="rect3963-7-7-5"
       width="20"
       height="20"
       x="9.84375"
       y="971.59375" />
    <rect
       style="opacity:0.8;fill:#000000;fill-opacity:1;fill-rule:nonzero;stroke:none"
       id="rect3963-7-6"
       width="20"
       height="20"
       x="29.84375"
       y="911.09375" />
    <rect
       style="opacity:0.8;fill:#ffffff;fill-opacity:1;fill-rule:nonzero;stroke:none"
       id="rect3963-7-6-1"
       width="20"
       height="20"
       x="29.84375"
       y="931.59375" />
    <rect
       style="opacity:0.8;fill:#000000;fill-opacity:1;fill-rule:nonzero;stroke:none"
       id="rect3963-7-7-9"
       width="20"
       height="20"
       x="29.84375"
       y="951.59381" />
    <rect
       style="opacity:0.8;fill:#ffffff;fill-opacity:1;fill-rule:nonzero;stroke:none"
       id="rect3963-7-6-1-2"
       width="20"
       height="20"
       x="29.84375"
       y="971.59375" />
    <rect
       style="opacity:0.8;fill:#000000;fill-opacity:1;fill-rule:nonzero;stroke:none"
       id="rect3963-7-6-1-5"
       width="20"
       height="20"
       x="49.84375"
       y="931.59375" />
    <rect
       style="opacity:0.8;fill:#000000;fill-opacity:1;fill-rule:nonzero;stroke:none"
       id="rect3963-7-7-9-8"
       width="20"
       height="20"
       x="49.84375"
       y="971.59375" />
    <rect
       style="opacity:0.8;fill:#ffffff;fill-opacity:1;fill-rule:nonzero;stroke:none"
       id="rect3963-7-6-1-2-4"
       width="20"
       height="20"
       x="49.84375"
       y="951.59381" />
    <rect
       style="opacity:0.8;fill:#ffffff;fill-opacity:1;fill-rule:nonzero;stroke:none"
       id="rect3963-7-7-9-8-6"
       width="20"
       height="20"
       x="69.84375"
       y="971.59375" />
    <rect
       style="opacity:0.8;fill:#000000;fill-opacity:1;fill-rule:nonzero;stroke:none"
       id="rect3963-7-6-1-2-4-1"
       width="20"
       height="20"
       x="69.84375"
       y="951.59381" />
    <rect
       style="opacity:0.8;fill:#000000;fill-opacity:1;fill-rule:nonzero;stroke:none"
       id="rect3963-7-6-1-2-4-1-9"
       width="20"
       height="20"
       x="89.84375"
       y="971.59375" />
    <path
       style="fill:#000000"
       d="m 511.59677,958.40227 c -1.12162,-0.1351 -2.83732,-0.3847 -3.81264,-0.5547 l -1.77334,-0.3091 -0.3929,-0.7979 c -0.65532,-1.331 -2.21039,-5.3198 -2.66167,-6.8274 -0.67291,-2.2478 -1.11275,-4.7649 -1.11275,-6.3681 0,-2.2001 0.10573,-2.5391 0.95586,-3.0648 1.92048,-1.1873 6.15303,-4.47175 6.63487,-5.14835 0.20279,-0.2848 0.42236,-0.9223 0.48792,-1.4166 0.11452,-0.8632 0.0992,-0.9082 -0.38873,-1.1412 -1.01092,-0.4829 -1.84484,-2.74314 -2.12052,-5.74732 -0.11282,-1.22955 -0.1232,-1.25059 -0.58375,-1.183 -0.69526,0.10204 -1.34941,-0.51552 -1.98581,-1.87472 -0.30588,-0.65329 -0.76655,-1.62669 -1.02371,-2.16313 -0.40513,-0.8451 -0.47948,-1.2713 -0.55685,-3.19199 l -0.0894,-2.21667 -0.79801,0 c -0.93933,0 -0.93389,0.0624 -0.1774,-2.03932 0.5718,-1.5886 0.57809,-1.72077 0.24512,-5.14768 -0.0849,-0.874 -0.028,-1.10936 0.5244,-2.16919 0.34081,-0.65384 0.67482,-1.44958 0.74224,-1.7683 0.17999,-0.85091 0.73023,-1.66403 1.41062,-2.08454 0.36915,-0.22814 0.64163,-0.56391 0.70992,-0.87479 0.27065,-1.23224 1.74031,-2.3156 3.1452,-2.31848 0.33476,-7e-4 0.45365,-0.0751 0.38901,-0.24359 -0.0568,-0.14809 0.16115,-0.39258 0.55963,-0.62769 0.59742,-0.35249 0.64427,-0.4371 0.55312,-0.99874 -0.0921,-0.56768 -0.0639,-0.61581 0.37695,-0.64274 1.06516,-0.0651 2.33353,0.0741 3.84585,0.42191 1.36396,0.31371 1.93412,0.35087 3.92183,0.25563 1.79543,-0.086 2.52689,-0.0518 3.20732,0.1503 1.71839,0.51032 2.9735,1.78547 3.61106,3.66877 l 0.30402,0.89804 1.16968,0.0517 c 1.44,0.0638 2.77823,0.63942 3.90894,1.68165 1.04984,0.96771 1.45011,1.65472 1.58781,2.72524 0.0615,0.47787 0.23137,1.10859 0.37754,1.40158 0.33258,0.66668 0.34214,1.34671 0.0207,1.47007 -0.13479,0.0517 -0.29773,0.42323 -0.36206,0.82554 -0.0643,0.40232 -0.24031,0.99141 -0.39106,1.30909 -0.24804,0.52271 -0.24712,0.67039 0.01,1.55387 0.15611,0.53695 0.36258,1.02494 0.45882,1.08442 0.19461,0.12028 0.23827,1.48933 0.0621,1.9483 -0.062,0.16175 -0.30146,0.36581 -0.53199,0.45346 -0.35619,0.13541 -0.41915,0.281 -0.41915,0.96922 0,2.97009 -1.78012,6.88605 -3.5452,7.7988 -0.36147,0.18693 -0.53896,0.49828 -0.77689,1.36285 -0.45419,1.65043 -1.6115,3.93102 -2.43319,4.79475 -0.66127,0.6951 -0.7113,0.815 -0.6133,1.4686 0.15088,1.0061 0.88062,2.49785 1.36915,2.79885 0.2274,0.1402 1.82988,1.0704 3.5611,2.067 l 3.14766,1.8123 0,1.1295 c 0,2.6702 -0.86348,7.2898 -1.85494,9.9239 -0.66605,1.7694 -2.21501,4.6467 -2.93044,5.4435 -0.57401,0.6392 -0.75644,0.7208 -2.30793,1.033 -3.62392,0.7296 -9.55859,0.9113 -13.65466,0.4182 z m 7.44799,-35.26631 0,-1.50734 -1.50733,0 -1.50732,0 0,1.3891 c 0,0.76401 0.0532,1.44232 0.11822,1.50734 0.065,0.065 0.74331,0.11822 1.50732,0.11822 l 1.38911,0 0,-1.50732 z m -0.17267,-3.857 c 0.0102,-0.88065 0.61242,-1.7473 1.85734,-2.67309 0.68274,-0.50771 1.50068,-1.31002 1.81766,-1.78289 0.49674,-0.74102 0.57634,-1.01253 0.57634,-1.96591 0,-1.28792 -0.22984,-2.07783 -0.84574,-2.90675 -1.68032,-2.26142 -6.05135,-2.59466 -8.33982,-0.63582 -0.8321,0.71226 -1.58517,2.15098 -1.66528,3.18148 l -0.0552,0.70932 1.46301,0.0515 c 1.25842,0.0443 1.46299,0.0108 1.46299,-0.23919 0,-0.55989 0.59722,-1.54186 1.13847,-1.87191 0.66311,-0.40436 1.99176,-0.43904 2.86359,-0.0748 0.43505,0.18178 0.70441,0.45837 0.89832,0.92247 0.40851,0.9777 0.10706,1.81261 -0.95943,2.65734 -2.11965,1.67889 -2.66156,2.45963 -2.82824,4.07452 l -0.0983,0.95271 1.35481,0 c 1.28539,0 1.35504,-0.0205 1.35946,-0.399 z"
       id="path4319"
       inkscape:connector-curvature="0" />
    <text
       xml:space="preserve"
       style="font-size:9.56938648px;font-style:normal;font-weight:normal;text-align:center;line-height:125%;letter-spacing:0px;word-spacing:0px;text-anchor:middle;fill:#000000;fill-opacity:1;stroke:none;font-family:Sans"
       x="517.31818"
       y="971.69366"
       id="text4321"
       sodipodi:linespacing="125%"><tspan
         sodipodi:role="line"
         id="tspan4323"
         x="518.61713"
         y="971.69366"
         style="text-align:center;text-anchor:middle;font-family:museo;-inkscape-font-specification:museo">who's the next </tspan><tspan
         sodipodi:role="line"
         x="517.31818"
         y="986.0354"
         style="font-size:12px;text-align:center;text-anchor:middle;font-family:museo;-inkscape-font-specification:museo"
         id="tspan3019">leader ?</tspan></text>
    <rect
       style="fill:#000000;fill-opacity:1;fill-rule:nonzero;stroke:none"
       id="rect3030"
       width="700"
       height="0.97500002"
       x="9.84375"
       y="990.61877" />
  </g>
</svg>
