<?xml version="1.0" encoding="UTF-8" standalone="no"?>
<!-- Created with Inkscape (http://www.inkscape.org/) -->

<svg
   xmlns:dc="http://purl.org/dc/elements/1.1/"
   xmlns:cc="http://creativecommons.org/ns#"
   xmlns:rdf="http://www.w3.org/1999/02/22-rdf-syntax-ns#"
   xmlns:svg="http://www.w3.org/2000/svg"
   xmlns="http://www.w3.org/2000/svg"
   xmlns:sodipodi="http://sodipodi.sourceforge.net/DTD/sodipodi-0.dtd"
   xmlns:inkscape="http://www.inkscape.org/namespaces/inkscape"
   width="125"
   height="30"
   id="svg2"
   version="1.1"
   inkscape:version="0.48.4 r9939"
   sodipodi:docname="home.svg">
  <defs
     id="defs4" />
  <sodipodi:namedview
     id="base"
     pagecolor="#ffffff"
     bordercolor="#666666"
     borderopacity="1.0"
     inkscape:pageopacity="0.0"
     inkscape:pageshadow="2"
     inkscape:zoom="2.3"
     inkscape:cx="-56.014365"
     inkscape:cy="51.87839"
     inkscape:document-units="px"
     inkscape:current-layer="layer1"
     showgrid="false"
     inkscape:window-width="1366"
     inkscape:window-height="709"
     inkscape:window-x="0"
     inkscape:window-y="27"
     inkscape:window-maximized="1" />
  <metadata
     id="metadata7">
    <rdf:RDF>
      <cc:Work
         rdf:about="">
        <dc:format>image/svg+xml</dc:format>
        <dc:type
           rdf:resource="http://purl.org/dc/dcmitype/StillImage" />
        <dc:title></dc:title>
      </cc:Work>
    </rdf:RDF>
  </metadata>
  <g
     inkscape:label="Layer 1"
     inkscape:groupmode="layer"
     id="layer1"
     transform="translate(0,-1022.3622)">
    <text
       xml:space="preserve"
       style="font-size:16.55180359px;font-style:normal;font-weight:normal;line-height:125%;letter-spacing:0px;word-spacing:0px;fill:#000000;fill-opacity:1;stroke:none;font-family:Sans"
       x="31.37553"
       y="1042.1278"
       id="text3090"
       sodipodi:linespacing="125%"><tspan
         sodipodi:role="line"
         id="tspan3092"
         x="31.37553"
         y="1042.1278">LOG IN</tspan></text>
    <g
       transform="matrix(0.05117754,0,0,0.05117754,3.246386,1024.0433)"
       id="g5686">
      <path
         inkscape:connector-curvature="0"
         d="m 224,288 64,-64 -64,-64 v 48 H 72 c -4.4,0 -8,3.6 -8,8 v 16 c 0,4.4 3.6,8 8,8 h 152 v 48 z"
         id="path5688" />
      <path
         inkscape:connector-curvature="0"
         d="M 440,64 H 168 c -4.4,0 -8,3.6 -8,8 v 104 h 32 V 96 h 176 l -48,32 V 352 H 192 v -80 h -32 v 104 c 0,4.4 3.6,8 8,8 h 152 v 64 L 438.8,388.6 C 448,384 448,382.5 448,374 V 72 c 0,-4.4 -3.6,-8 -8,-8 z"
         id="path5690" />
    </g>
  </g>
</svg>
