<?xml version="1.0" encoding="UTF-8" standalone="no"?>
<!-- Created with Inkscape (http://www.inkscape.org/) -->

<svg
   xmlns:dc="http://purl.org/dc/elements/1.1/"
   xmlns:cc="http://creativecommons.org/ns#"
   xmlns:rdf="http://www.w3.org/1999/02/22-rdf-syntax-ns#"
   xmlns:svg="http://www.w3.org/2000/svg"
   xmlns="http://www.w3.org/2000/svg"
   xmlns:sodipodi="http://sodipodi.sourceforge.net/DTD/sodipodi-0.dtd"
   xmlns:inkscape="http://www.inkscape.org/namespaces/inkscape"
   width="125"
   height="30"
   id="svg2"
   version="1.1"
   inkscape:version="0.48.4 r9939"
   sodipodi:docname="candidates.svg">
  <defs
     id="defs4" />
  <sodipodi:namedview
     id="base"
     pagecolor="#ffffff"
     bordercolor="#666666"
     borderopacity="1.0"
     inkscape:pageopacity="0.0"
     inkscape:pageshadow="2"
     inkscape:zoom="2.3"
     inkscape:cx="-56.014365"
     inkscape:cy="51.87839"
     inkscape:document-units="px"
     inkscape:current-layer="layer1"
     showgrid="false"
     inkscape:window-width="1366"
     inkscape:window-height="709"
     inkscape:window-x="0"
     inkscape:window-y="27"
     inkscape:window-maximized="1" />
  <metadata
     id="metadata7">
    <rdf:RDF>
      <cc:Work
         rdf:about="">
        <dc:format>image/svg+xml</dc:format>
        <dc:type
           rdf:resource="http://purl.org/dc/dcmitype/StillImage" />
        <dc:title></dc:title>
      </cc:Work>
    </rdf:RDF>
  </metadata>
  <g
     inkscape:label="Layer 1"
     inkscape:groupmode="layer"
     id="layer1"
     transform="translate(0,-1022.3622)">
    <text
       xml:space="preserve"
       style="font-size:16.55180359px;font-style:normal;font-weight:normal;line-height:125%;letter-spacing:0px;word-spacing:0px;fill:#000000;fill-opacity:1;stroke:none;font-family:Sans"
       x="31.37553"
       y="1042.1278"
       id="text3090"
       sodipodi:linespacing="125%"><tspan
         sodipodi:role="line"
         id="tspan3092"
         x="31.37553"
         y="1042.1278">Rules</tspan></text>
    <path
       style="fill:#000000"
       d="m 15.650585,1046.0974 c -1.577994,-0.1439 -3.213118,-0.7194 -4.51483,-1.5889 -2.0655215,-1.3797 -3.5270205,-3.4528 -4.1114785,-5.8317 -0.203675,-0.8291 -0.268248,-1.3924 -0.267571,-2.334 8.48e-4,-1.1214 0.122654,-1.9589 0.424207,-2.9157 0.469847,-1.4908 1.225865,-2.7536 2.328503,-3.8894 1.5652825,-1.6125 3.3973915,-2.5473 5.6820345,-2.8992 0.327535,-0.05 0.669835,-0.068 1.339145,-0.068 0.952114,0 1.360978,0.042 2.180903,0.2252 2.490305,0.5557 4.741537,2.1601 6.129386,4.3683 0.301353,0.4794 0.751829,1.4133 0.929148,1.9263 0.195857,0.5665 0.350439,1.1941 0.447643,1.8174 0.119577,0.7667 0.119656,2.1019 1.55e-4,2.8696 -0.165549,1.0637 -0.438589,1.9221 -0.924926,2.9079 -0.476952,0.9667 -0.983818,1.6843 -1.739792,2.4629 -2.068469,2.1306 -4.976526,3.2158 -7.902524,2.949 z m -0.229567,-4.5684 0,-1.9688 -0.143479,-0.023 c -0.41171,-0.068 -0.944401,-0.2275 -1.342424,-0.4025 -1.283378,-0.5642 -4.4205945,-1.9077 -4.5258995,-1.9381 -0.05693,-0.016 -0.05762,0.01 -0.0082,0.3189 0.164899,1.0298 0.6221595,2.1443 1.2289535,2.9955 0.295034,0.4139 0.933766,1.0959 1.327766,1.4179 0.901497,0.7366 1.958594,1.2404 3.138097,1.4953 0.168349,0.036 0.310394,0.068 0.315655,0.07 0.0053,0 0.0096,-0.882 0.0096,-1.9648 z m 2.880854,1.8146 c 0.926768,-0.2391 1.774413,-0.6444 2.552248,-1.2202 0.364426,-0.2697 1.011111,-0.8938 1.31159,-1.2658 0.613077,-0.7588 1.127723,-1.7783 1.362257,-2.6985 0.09167,-0.3597 0.194789,-0.9746 0.163451,-0.9746 -0.02532,0 -2.959033,1.2461 -3.717307,1.5789 -0.284091,0.1247 -0.693864,0.3039 -0.910608,0.3982 -0.354238,0.1541 -0.888348,0.3106 -1.279851,0.375 l -0.14348,0.024 0,1.9638 0,1.9637 0.181741,-0.034 c 0.09996,-0.018 0.31594,-0.068 0.479959,-0.1105 z m -5.13716,-8.3216 c 0.39846,-0.2713 0.658842,-0.4015 1.133633,-0.5667 1.868578,-0.6505 4.152477,-0.4219 5.588259,0.5592 l 0.314237,0.2148 1.158822,-0.1093 c 0.637352,-0.06 1.404173,-0.131 1.704046,-0.1576 0.299873,-0.027 0.545223,-0.064 0.545223,-0.083 0,-0.019 -0.03449,-0.17 -0.07665,-0.3351 -0.346382,-1.3567 -1.145847,-2.6659 -2.199893,-3.6026 -2.542746,-2.2598 -6.337618,-2.441 -9.067924,-0.4328 -1.225444,0.9013 -2.129586,2.1495 -2.6014685,3.5915 -0.09031,0.276 -0.175703,0.5721 -0.189749,0.658 l -0.02554,0.1561 0.5666305,0.05 c 0.311645,0.027 1.04872,0.097 1.637945,0.1547 0.589222,0.057 1.100781,0.1067 1.136794,0.1094 0.03601,0 0.205049,-0.09 0.375635,-0.2064 z"
       id="path4430"
       inkscape:connector-curvature="0" />
  </g>
</svg>
