<?xml version="1.0" encoding="UTF-8" standalone="no"?>
<!-- Created with Inkscape (http://www.inkscape.org/) -->

<svg
   xmlns:dc="http://purl.org/dc/elements/1.1/"
   xmlns:cc="http://creativecommons.org/ns#"
   xmlns:rdf="http://www.w3.org/1999/02/22-rdf-syntax-ns#"
   xmlns:svg="http://www.w3.org/2000/svg"
   xmlns="http://www.w3.org/2000/svg"
   xmlns:sodipodi="http://sodipodi.sourceforge.net/DTD/sodipodi-0.dtd"
   xmlns:inkscape="http://www.inkscape.org/namespaces/inkscape"
   width="125"
   height="30"
   id="svg2"
   version="1.1"
   inkscape:version="0.48.4 r9939"
   sodipodi:docname="about.svg">
  <defs
     id="defs4" />
  <sodipodi:namedview
     id="base"
     pagecolor="#ffffff"
     bordercolor="#666666"
     borderopacity="1.0"
     inkscape:pageopacity="0.0"
     inkscape:pageshadow="2"
     inkscape:zoom="2.3"
     inkscape:cx="-56.014365"
     inkscape:cy="51.87839"
     inkscape:document-units="px"
     inkscape:current-layer="layer1"
     showgrid="false"
     inkscape:window-width="1366"
     inkscape:window-height="709"
     inkscape:window-x="0"
     inkscape:window-y="27"
     inkscape:window-maximized="1" />
  <metadata
     id="metadata7">
    <rdf:RDF>
      <cc:Work
         rdf:about="">
        <dc:format>image/svg+xml</dc:format>
        <dc:type
           rdf:resource="http://purl.org/dc/dcmitype/StillImage" />
        <dc:title></dc:title>
      </cc:Work>
    </rdf:RDF>
  </metadata>
  <g
     inkscape:label="Layer 1"
     inkscape:groupmode="layer"
     id="layer1"
     transform="translate(0,-1022.3622)">
    <text
       xml:space="preserve"
       style="font-size:16.55180359px;font-style:normal;font-weight:normal;line-height:125%;letter-spacing:0px;word-spacing:0px;fill:#000000;fill-opacity:1;stroke:none;font-family:Sans"
       x="31.37553"
       y="1042.1278"
       id="text3090"
       sodipodi:linespacing="125%"><tspan
         sodipodi:role="line"
         id="tspan3092"
         x="31.37553"
         y="1042.1278">SIGN UP</tspan></text>
    <path
       style="fill:#000000"
       d="m 10.5608,1045.4624 c -0.05004,-0.021 -0.131909,-0.083 -0.181943,-0.1383 -0.09022,-0.1003 -0.09107,-0.1735 -0.102689,-8.8562 -0.01282,-9.5816 -0.02888,-8.981 0.243479,-9.1051 0.08329,-0.038 1.839549,-0.052 6.572782,-0.052 7.022028,0 6.644411,-0.014 6.764148,0.249 0.04075,0.089 0.05434,1.075 0.05434,3.942 l 0,3.8227 -1.462624,2.5887 -1.462624,2.5885 -4.223116,0 -4.223117,0 0,0.2274 0,0.2275 0.875604,10e-5 c 1.078982,10e-5 7.376524,0.055 7.389467,0.065 0.0052,0 -0.06113,0.395 -0.147301,0.8693 -0.08617,0.4744 -0.156914,0.8676 -0.157205,0.8738 -2.9e-4,0.01 -1.791536,0.012 -3.980547,0.012 l -3.980018,0 0,0.2274 0,0.2275 4.288248,0 4.288249,0 0.860761,-0.58 0.860762,-0.5799 0.525359,-0.9421 0.525359,-0.9421 0.01196,2.4659 c 0.0086,1.7837 -0.0025,2.501 -0.04052,2.593 -0.113411,0.275 0.289337,0.2597 -6.757952,0.2566 -3.547438,0 -6.490826,-0.02 -6.54086,-0.04 z m 11.075823,-7.0073 0,-0.2275 -4.548592,0 -4.548593,0 0,0.2275 0,0.2274 4.548593,0 4.548592,0 0,-0.2274 z m 0,-2.2743 0,-0.2274 -4.548592,0 -4.548593,0 0,0.2274 0,0.2274 4.548593,0 4.548592,0 0,-0.2274 z m 0,-2.2743 0,-0.2274 -4.548592,0 -4.548593,0 0,0.2274 0,0.2274 4.548593,0 4.548592,0 0,-0.2274 z m -5.91317,-2.9338 0,-1.8422 -1.592008,0 -1.592007,0 0,1.8422 0,1.8421 1.592007,0 1.592008,0 0,-1.8421 z m 5.91317,0.6595 0,-0.2274 -2.501726,0 -2.501726,0 0,0.2274 0,0.2274 2.501726,0 2.501726,0 0,-0.2274 z m 0,-2.2743 0,-0.2274 -2.501726,0 -2.501726,0 0,0.2274 0,0.2274 2.501726,0 2.501726,0 0,-0.2274 z m -0.798122,13.5001 c 0.0129,-0.057 0.09515,-0.5025 0.182779,-0.9889 l 0.159328,-0.8843 1.009568,-1.7766 c 0.555262,-0.9771 1.34135,-2.3599 1.746861,-3.0729 0.405512,-0.713 0.750555,-1.2927 0.766762,-1.2882 0.01621,0.01 0.323745,0.1737 0.683418,0.3758 l 0.65395,0.3677 -0.329303,0.5794 c -0.181117,0.3186 -0.972058,1.7098 -1.757648,3.0913 l -1.428344,2.512 -0.524225,0.3609 c -0.288324,0.1985 -0.673259,0.466 -0.855411,0.5946 -0.290955,0.2053 -0.328337,0.221 -0.307735,0.1292 z m 4.590428,-7.8289 -0.642572,-0.3762 0.09108,-0.1799 c 0.05009,-0.099 0.09625,-0.1859 0.102562,-0.1933 0.0063,-0.01 0.152145,0.042 0.324064,0.1093 0.313563,0.123 1.017612,0.5852 1.017612,0.668 0,0.061 -0.182311,0.3508 -0.219768,0.3495 -0.01672,0 -0.319562,-0.1704 -0.672976,-0.3774 z"
       id="path5212"
       inkscape:connector-curvature="0" />
  </g>
</svg>
